<?xml version="1.0" encoding="utf-8"?>
<!-- Generator: Adobe Illustrator 25.2.1, SVG Export Plug-In . SVG Version: 6.00 Build 0)  -->
<svg version="1.1" id="_x39_fdefff5-85d0-4966-a467-61bbd219a051"
	 xmlns="http://www.w3.org/2000/svg" xmlns:xlink="http://www.w3.org/1999/xlink" x="0px" y="0px" viewBox="0 0 137.7 31.4"
	 style="enable-background:new 0 0 137.7 31.4;" xml:space="preserve">
<style type="text/css">
	.st0{fill:#DF1F26;}
</style>
<g>
	<g>
		<path class="st0" d="M83.9,13.8L91,25.6c0.1,0.2,0,0.3-0.2,0.3l-5,0.1c-0.1,0-0.2,0-0.2-0.1l-7.3-12c-0.1-0.1-0.3-0.1-0.4,0
			l-6.8,11.9c-0.1,0.2-0.3,0.2-0.4,0l-2.5-4.3c0-0.1,0-0.2,0-0.2l7-12.2c0.1-0.2,0.3-0.2,0.4,0l2.4,4.3c0,0.1,0.1,0.1,0.2,0.1
			l5.2-0.1c0.1,0,0.2,0,0.2-0.1l2.8-5c0.1-0.2,0-0.3-0.2-0.3l-10.9,0c-0.1,0-0.2,0-0.2-0.1l-2.5-4.3c-0.1-0.2,0-0.3,0.2-0.3l14,0
			c0.1,0,0.2,0,0.2,0.1l0.9,1.5c0.1,0.2,0.3,0.1,0.4,0l2.2-3.9c0-0.1,0.1-0.1,0.2-0.1l4.9-0.1C96,0.6,96.1,0.8,96,1l-6.9,12.2
			c0,0.1-0.1,0.1-0.2,0.1l-4.9,0.1C83.9,13.4,83.8,13.6,83.9,13.8z"/>
		<path class="st0" d="M68.1,26h-5c-0.1,0-0.2,0-0.2-0.1l-5.5-9.4c-0.1-0.2-0.3-0.2-0.4,0l-8.2,14c-0.1,0.2-0.3,0.2-0.4,0L46,26.3
			c0-0.1,0-0.2,0-0.2l5.7-9.7c0.1-0.2,0-0.3-0.2-0.3h-4.6c-0.1,0-0.2,0-0.2-0.1l-5.6-9.5c-0.1-0.2,0-0.3,0.2-0.3h5
			c0.1,0,0.2,0,0.2,0.1l5.7,9.8c0,0.1,0.1,0.1,0.2,0.1h4.4c0.2,0,0.3-0.2,0.2-0.3l-5.4-9.3c-0.1-0.2,0-0.3,0.2-0.3h5
			c0.1,0,0.2,0,0.2,0.1l11.4,19.5C68.4,25.9,68.3,26,68.1,26z"/>
	</g>
</g>
</svg>
